:SAMPLES-PER-SECOND 30
:FULLY-SPECIFIED
:DEGREES
405
root  -73.2262 41.5163 -5.31576 160.319 84.5946 157.221
RightUpLeg  -4.54295 -10.381 -6.50634
RightLeg  9.53525 -3.92336 3.06942
RightFoot  -7.18855 -0.0348301 -0.385104
RightToes  0.000482159 0.542163 -0.142577
Spine  8.936 -0.210328 -1.3713
Spine1  0.13473 -0.361126 0.581347
HEad  -12.5144 -2.83744 3.1158
LeftShoulder1  4.24115 -7.54109 -32.3299
LeftArm  -18.707 22.1928 -19.7991
LeftForeArm  26.9943 -14.939 -2.23814
LeftHand  -0.25398 0.0180481 5.50724
RightShoulder  2.77468 4.81764 27.302
RightArm  -24.2311 -17.6159 31.1516
RightForeArm  5.54605 13.2948 3.24804
RightHand  -2.77166 8.76884 -22.8709
LeftUpLeg  -5.10991 6.62897 2.65485
LeftLeg  2.88123 32.9551 -4.84077
LeftFoot  -0.585326 0.142222 -1.47533
LeftToes  1.06245e-005 4.65855e-005 -8.18503e-006
406
root  -73.4056 41.5187 -5.10071 151.359 85.3275 148.645
RightUpLeg  -4.74161 -10.6072 -6.59776
RightLeg  9.8396 -2.75586 3.23781
RightFoot  -6.97305 -0.0159614 -0.822452
RightToes  0.000482159 0.542163 -0.142577
Spine  8.70935 0.191643 -0.52278
Spine1  0.328465 0.371922 -0.823613
HEad  -11.2959 -3.35507 3.07361
LeftShoulder1  3.68187 -6.99083 -28.9764
LeftArm  -19.4343 20.3885 -17.4593
LeftForeArm  21.8608 -11.8198 -1.75421
LeftHand  -0.25398 0.0180481 5.50724
RightShoulder  2.3995 4.16073 25.1767
RightArm  -24.4768 -15.8329 26.8419
RightForeArm  3.51908 12.0024 3.06009
RightHand  -2.796 8.71808 -23.1412
LeftUpLeg  -5.20573 6.18911 2.21816
LeftLeg  3.38106 30.1896 -4.34861
LeftFoot  -1.72521 0.209574 -2.38309
LeftToes  1.06245e-005 4.65855e-005 -8.18503e-006
407
root  -73.5567 41.5145 -4.93325 141.93 85.5428 139.636
RightUpLeg  -4.82444 -10.8043 -6.87636
RightLeg  10.2586 -1.95018 3.31861
RightFoot  -6.95254 -0.00701211 -1.04717
RightToes  0.000482159 0.542163 -0.142577
Spine  8.69794 0.498547 0.0517736
Spine1  -0.00517045 0.904064 -1.79268
HEad  -9.85447 -3.68236 3.02615
LeftShoulder1  3.14685 -6.38597 -25.6095
LeftArm  -20.4122 18.7697 -15.1301
LeftForeArm  18.3034 -10.1371 -1.22224
LeftHand  -0.25398 0.0180481 5.50724
RightShoulder  1.9777 3.33337 22.6765
RightArm  -24.4668 -14.2562 22.311
RightForeArm  2.02122 10.8361 2.88744
RightHand  -2.73885 8.55306 -22.943
LeftUpLeg  -5.50893 5.35248 1.21399
LeftLeg  4.18939 22.6205 -3.74112
LeftFoot  -2.84458 0.309377 -3.93098
LeftToes  1.06245e-005 4.65855e-005 -8.18503e-006
408
root  -73.6821 41.4927 -4.81172 135.817 85.5303 134.136
RightUpLeg  -4.76169 -10.9438 -7.07489
RightLeg  10.9558 -1.59526 3.29523
RightFoot  -7.08929 0.00248065 -1.36111
RightToes  0.000482159 0.542163 -0.142577
Spine  9.01461 0.674143 0.467855
Spine1  -0.734491 1.16924 -2.14506
HEad  -8.10946 -3.67404 3.00101
LeftShoulder1  2.65909 -5.74088 -22.3992
LeftArm  -21.3915 17.4521 -12.7519
LeftForeArm  16.9536 -9.94402 -0.844931
LeftHand  -0.25398 0.0180481 5.50724
RightShoulder  1.61731 2.64466 19.8873
RightArm  -24.3403 -12.8759 17.7734
RightForeArm  0.598807 10.0751 2.81235
RightHand  -2.66263 8.41682 -22.542
LeftUpLeg  -5.96333 4.78329 -0.173599
LeftLeg  5.881 13.1411 -2.66484
LeftFoot  -3.37814 0.348398 -4.70214
LeftToes  1.06245e-005 4.65855e-005 -8.18503e-006
409
root  -73.7649 41.4556 -4.72877 132.276 85.7407 131.585
RightUpLeg  -4.21971 -10.9525 -7.0043
RightLeg  11.649 -1.34521 3.16326
RightFoot  -7.30645 0.00436807 -1.52525
RightToes  0.000482159 0.542163 -0.142577
Spine  9.33235 0.813382 1.11618
Spine1  -1.0602 1.41343 -2.41311
HEad  -6.34812 -3.69838 2.85376
LeftShoulder1  2.2115 -5.08719 -19.1723
LeftArm  -22.2454 16.2664 -10.6138
LeftForeArm  16.9473 -10.7278 -0.710959
LeftHand  -0.25398 0.0180481 5.50724
RightShoulder  1.30183 2.01748 16.9275
RightArm  -24.1042 -11.5096 13.5911
RightForeArm  -1.85217 9.71869 2.94548
RightHand  -2.60872 8.22811 -22.3962
LeftUpLeg  -5.84046 4.66513 -1.43096
LeftLeg  7.77467 7.4596 -1.55053
LeftFoot  -3.38264 0.239663 -3.16098
LeftToes  1.06245e-005 4.65855e-005 -8.18503e-006
410
root  -73.7771 41.4339 -4.66997 128.629 86.2547 129.056
RightUpLeg  -3.16267 -10.746 -6.71673
RightLeg  11.8007 -1.02294 3.02352
RightFoot  -7.44112 -0.000895147 -1.47175
RightToes  0.000482159 0.542163 -0.142577
Spine  9.1304 0.987127 1.77384
Spine1  -0.742214 1.71584 -2.71642
HEad  -4.58499 -3.8523 2.4694
LeftShoulder1  1.78323 -4.36773 -15.8229
LeftArm  -23.3766 15.2315 -8.96482
LeftForeArm  17.8668 -11.9895 -0.672278
LeftHand  -0.25398 0.0180481 5.50724
RightShoulder  0.971076 1.15665 13.9137
RightArm  -23.8604 -9.74366 10.0847
RightForeArm  -4.28387 9.52604 3.18169
RightHand  -2.62329 8.21461 -22.5361
LeftUpLeg  -4.72096 4.3757 -1.98437
LeftLeg  8.3789 7.95695 -0.96763
LeftFoot  -3.09546 0.0203861 -0.0322174
LeftToes  1.06245e-005 4.65855e-005 -8.18503e-006
